GIL12_xslow1_ik
nRows=3
nColumns=375

# SIMM Motion File Header:
name GIL12_xslow1_ik
datacolumns 375
datarows 3
otherdata 1
range 1.00833000 1.02500000
endheader
time	pelvis_tx	pelvis_ty	pelvis_tz	pelvis_tilt	pelvis_list	pelvis_rotation	hip_flexion_r	hip_adduction_r	hip_rotation_r	knee_angle_r	ankle_angle_r	hip_flexion_l	hip_adduction_l	hip_rotation_l	knee_angle_l	ankle_angle_l	lumbar_extension	lumbar_bending	lumbar_rotation	subtalar_angle_r	mtp_angle_r	subtalar_angle_l	mtp_angle_l	asis_r_px	asis_r_py	asis_r_pz	asis_l_px	asis_l_py	asis_l_pz	midasis_px	midasis_py	midasis_pz	psis_r_px	psis_r_py	psis_r_pz	psis_l_px	psis_l_py	psis_l_pz	hip_r_px	hip_r_py	hip_r_pz	hip_l_px	hip_l_py	hip_l_pz	midhip_px	midhip_py	midhip_pz	epicondLat_r_px	epicondLat_r_py	epicondLat_r_pz	epicondMed_r_px	epicondMed_r_py	epicondMed_r_pz	thighwand_r_px	thighwand_r_py	thighwand_r_pz	upperleg1_r_px	upperleg1_r_py	upperleg1_r_pz	upperleg2_r_px	upperleg2_r_py	upperleg2_r_pz	malleolusLat_r_px	malleolusLat_r_py	malleolusLat_r_pz	malleolusMedv_r_px	malleolusMedv_r_py	malleolusMedv_r_pz	shankwand_r_px	shankwand_r_py	shankwand_r_pz	lowerleg1_r_px	lowerleg1_r_py	lowerleg1_r_pz	knee_r_px	knee_r_py	knee_r_pz	ankle_r_px	ankle_r_py	ankle_r_pz	toe_r_px	toe_r_py	toe_r_pz	epicondLat_l_px	epicondLat_l_py	epicondLat_l_pz	epicondMed_l_px	epicondMed_l_py	epicondMed_l_pz	thighwand_l_px	thighwand_l_py	thighwand_l_pz	upperleg1_l_px	upperleg1_l_py	upperleg1_l_pz	upperleg2_l_px	upperleg2_l_py	upperleg2_l_pz	malleolusLat_l_px	malleolusLat_l_py	malleolusLat_l_pz	malleolusMedv_l_px	malleolusMedv_l_py	malleolusMedv_l_pz	shankwand_l_px	shankwand_l_py	shankwand_l_pz	lowerleg1_l_px	lowerleg1_l_py	lowerleg1_l_pz	knee_l_px	knee_l_py	knee_l_pz	ankle_l_px	ankle_l_py	ankle_l_pz	toe_l_px	toe_l_py	toe_l_pz	subclavicle_r_px	subclavicle_r_py	subclavicle_r_pz	subclavicle_l_px	subclavicle_l_py	subclavicle_l_pz	neck_px	neck_py	neck_pz	sternalnotch_px	sternalnotch_py	sternalnotch_pz	xyphoidprocess_px	xyphoidprocess_py	xyphoidprocess_pz	midhip_tx	midhip_ty	midhip_tz	hip_r_tx	hip_r_ty	hip_r_tz	hip_l_tx	hip_l_ty	hip_l_tz	knee_r_tx	knee_r_ty	knee_r_tz	knee_l_tx	knee_l_ty	knee_l_tz	ankle_r_tx	ankle_r_ty	ankle_r_tz	ankle_l_tx	ankle_l_ty	ankle_l_tz	midasis_tx	midasis_ty	midasis_tz	asis_r_tx	asis_r_ty	asis_r_tz	asis_l_tx	asis_l_ty	asis_l_tz	psis_r_tx	psis_r_ty	psis_r_tz	psis_l_tx	psis_l_ty	psis_l_tz	epicondLat_r_tx	epicondLat_r_ty	epicondLat_r_tz	epicondLat_l_tx	epicondLat_l_ty	epicondLat_l_tz	epicondMed_r_tx	epicondMed_r_ty	epicondMed_r_tz	epicondMed_l_tx	epicondMed_l_ty	epicondMed_l_tz	malleolusLat_r_tx	malleolusLat_r_ty	malleolusLat_r_tz	malleolusLat_l_tx	malleolusLat_l_ty	malleolusLat_l_tz	malleolusMedv_r_tx	malleolusMedv_r_ty	malleolusMedv_r_tz	malleolusMedv_l_tx	malleolusMedv_l_ty	malleolusMedv_l_tz	neck_tx	neck_ty	neck_tz	subclavicle_r_tx	subclavicle_r_ty	subclavicle_r_tz	subclavicle_l_tx	subclavicle_l_ty	subclavicle_l_tz	sternalnotch_tx	sternalnotch_ty	sternalnotch_tz	xyphoidprocess_tx	xyphoidprocess_ty	xyphoidprocess_tz	thighwand_r_tx	thighwand_r_ty	thighwand_r_tz	thighwand_l_tx	thighwand_l_ty	thighwand_l_tz	upperleg1_r_tx	upperleg1_r_ty	upperleg1_r_tz	upperleg1_l_tx	upperleg1_l_ty	upperleg1_l_tz	upperleg2_r_tx	upperleg2_r_ty	upperleg2_r_tz	upperleg2_l_tx	upperleg2_l_ty	upperleg2_l_tz	shankwand_r_tx	shankwand_r_ty	shankwand_r_tz	shankwand_l_tx	shankwand_l_ty	shankwand_l_tz	lowerleg1_r_tx	lowerleg1_r_ty	lowerleg1_r_tz	lowerleg1_l_tx	lowerleg1_l_ty	lowerleg1_l_tz	toe_r_tx	toe_r_ty	toe_r_tz	toe_l_tx	toe_l_ty	toe_l_tz	ground_force_vx	ground_force_vy	ground_force_vz	ground_force_px	ground_force_py	ground_force_pz	ground_force_vx	ground_force_vy	ground_force_vz	ground_force_px	ground_force_py	ground_force_pz	ground_torque_x	ground_torque_y	ground_torque_z	ground_torque_x	ground_torque_y	ground_torque_z	ground_marker_px	ground_marker_py	ground_marker_pz	ground_marker_px	ground_marker_py	ground_marker_pz	ground_marker_px	ground_marker_py	ground_marker_pz	ground_marker_px	ground_marker_py	ground_marker_pz	ground_marker_px	ground_marker_py	ground_marker_pz	ground_marker_px	ground_marker_py	ground_marker_pz	ground_marker_px	ground_marker_py	ground_marker_pz	ground_marker_px	ground_marker_py	ground_marker_pz	ground_marker_px	ground_marker_py	ground_marker_pz	ground_marker_px	ground_marker_py	ground_marker_pz	ground_marker_px	ground_marker_py	ground_marker_pz	ground_marker_px	ground_marker_py	ground_marker_pz	ground_marker_px	ground_marker_py	ground_marker_pz	ground_marker_px	ground_marker_py	ground_marker_pz	ground_marker_px	ground_marker_py	ground_marker_pz	ground_marker_px	ground_marker_py	ground_marker_pz	ground_marker_px	ground_marker_py	ground_marker_pz	ground_marker_px	ground_marker_py	ground_marker_pz	ground_marker_px	ground_marker_py	ground_marker_pz	ground_marker_px	ground_marker_py	ground_marker_pz	ground_marker_px	ground_marker_py	ground_marker_pz	ground_marker_px	ground_marker_py	ground_marker_pz	ground_marker_px	ground_marker_py	ground_marker_pz	ground_marker_px	ground_marker_py	ground_marker_pz	ground_marker_px	ground_marker_py	ground_marker_pz	ground_marker_px	ground_marker_py	ground_marker_pz	ground_marker_px	ground_marker_py	ground_marker_pz	ground_marker_px	ground_marker_py	ground_marker_pz	ground_marker_px	ground_marker_py	ground_marker_pz	ground_marker_px	ground_marker_py	ground_marker_pz	ground_marker_px	ground_marker_py	ground_marker_pz	ground_marker_px	ground_marker_py	ground_marker_pz	ground_marker_px	ground_marker_py	ground_marker_pz	ground_marker_px	ground_marker_py	ground_marker_pz	ground_marker_px	ground_marker_py	ground_marker_pz	ground_marker_px	ground_marker_py	ground_marker_pz	ground_marker_px	ground_marker_py	ground_marker_pz
      1.00833000	      1.82229614	      0.66914445	     -0.18718678	      4.88205333	      0.74485308	      3.97576714	      9.74895289	     -3.61734029	     -2.46452859	      4.19124673	    -17.45173074	    -25.22041940	      2.30372024	     -5.75248111	     -7.96094665	      4.58795704	    -22.94752718	      2.92602629	      4.76782314	      0.00000000	      0.00000000	      0.00000000	      0.00000000	      1.93667972	      0.65818656	     -0.13166310	      1.92881273	      0.65954711	     -0.30592258	      1.83179156	      0.66996414	     -0.18784913	      1.80824017	      0.71673442	     -0.16911003	      1.80390982	      0.71661599	     -0.25430386	      1.78218211	      0.61966520	     -0.12758912	      1.77418347	      0.62046529	     -0.24126750	      1.77818279	      0.62006524	     -0.18442831	      1.91626353	      0.33277756	     -0.07575049	      1.91620711	      0.32436477	     -0.16898975	      2.02270205	      0.43508954	     -0.14889781	      1.93924000	      0.47805781	     -0.10709083	      1.94328222	      0.39054142	     -0.10062243	      1.96311271	      0.05258301	     -0.05362343	      1.97767078	      0.04935014	     -0.11289149	      1.96526672	      0.14859946	      0.00480351	      1.94536382	      0.19577673	     -0.06351350	      1.85603241	      0.32665649	     -0.11588195	      1.95024954	      0.05368809	     -0.10529569	      2.05943750	      0.02799887	     -0.07593935	      1.69994393	      0.30515429	     -0.30118338	      1.72296085	      0.30012436	     -0.21214461	      1.77192614	      0.34779061	     -0.37350868	      1.81292377	      0.40427353	     -0.29972029	      1.78064187	      0.32942575	     -0.27556327	      1.52984158	      0.06679031	     -0.26231262	      1.55786568	      0.05080644	     -0.20549909	      1.68745965	      0.09483663	     -0.24611606	      1.66176915	      0.17701007	     -0.25421248	      1.66767305	      0.33730812	     -0.22328866	      1.53248412	      0.08297953	     -0.20001620	      1.60758711	      0.00438496	     -0.27721229	      1.87963403	      0.98759181	     -0.13509870	      1.87132196	      1.00060267	     -0.22244475	      1.77591483	      1.00765378	     -0.16403418	      1.85720377	      0.99739656	     -0.16868907	      1.95666772	      0.90025201	     -0.19785617	      1.78454900	      0.61174500	     -0.17387900	      1.79132900	      0.62400200	     -0.12104900	      1.78263200	      0.62543900	     -0.23816300	      1.86545800	      0.33036600	     -0.11117000	      1.67719400	      0.34379000	     -0.21816600	      1.95658000	      0.05395400	     -0.10517800	      1.53348400	      0.08823100	     -0.22055100	      1.83140600	      0.68652500	     -0.18214600	      1.83795200	      0.68544300	     -0.09398800	      1.82485900	      0.68760700	     -0.27030500	      1.70010200	      0.70501000	     -0.12244200	      1.69773800	      0.70299700	     -0.20719600	      1.86625000	      0.33211200	     -0.06521000	      1.66826500	      0.34378400	     -0.26532800	      1.85875500	      0.32515300	     -0.15534100	      1.67672000	      0.34691500	     -0.17654400	      1.95345600	      0.05364700	     -0.07182500	      1.52609500	      0.09267800	     -0.25188600	      1.95663600	      0.05845300	     -0.13126800	      1.52703300	      0.09177300	     -0.18671800	      1.77002100	      1.02083200	     -0.16043400	      1.86746600	      0.94716700	     -0.13893600	      1.84785500	      0.95077400	     -0.22961200	      1.84533800	      0.96235200	     -0.17306300	      1.88011100	      0.82563900	     -0.19140000	      1.95576400	      0.44696600	     -0.14113000	      1.74859000	      0.39927600	     -0.33396300	      1.87678100	      0.47957900	     -0.09315400	      1.77427200	      0.45249600	     -0.25557500	      1.88813700	      0.39273000	     -0.08874200	      1.74126100	      0.37600200	     -0.23276800	      1.95523200	      0.14005400	     -0.00536800	      1.66637900	      0.14244600	     -0.19503800	      1.91606400	      0.19645300	     -0.06467200	      1.63697700	      0.21828600	     -0.21685900	      2.05062900	      0.04235700	     -0.10536100	      1.60181500	      0.03851100	     -0.21609800	    -13.41825068	    125.93546168	     -3.86893170	      1.95778943	      0.00000000	     -0.09990909	     28.60759293	    165.29178425	     -0.26886560	      1.61522327	      0.00000000	     -0.20309712	      0.00000000	      0.00877576	      0.00000000	      0.00000000	      0.08678995	      0.00000000	      1.78454947	      0.61174464	     -0.17387900	      1.79132867	      0.62400222	     -0.12104908	      1.78263187	      0.62543947	     -0.23816279	      1.86545825	      0.33036599	     -0.11116953	      1.67719376	      0.34378988	     -0.21816596	      1.95657969	      0.05395415	     -0.10517775	      1.53348410	      0.08823071	     -0.22055125	      1.83140564	      0.68652511	     -0.18214644	      1.83795226	      0.68544322	     -0.09398838	      1.82485914	      0.68760705	     -0.27030450	      1.70010173	      0.70501041	     -0.12244204	      1.69773805	      0.70299661	     -0.20719574	      1.86624968	      0.33211213	     -0.06520950	      1.66826487	      0.34378400	     -0.26532820	      1.85875499	      0.32515264	     -0.15534078	      1.67672002	      0.34691468	     -0.17654438	      1.95345616	      0.05364744	     -0.07182509	      1.52609468	      0.09267844	     -0.25188598	      1.95663595	      0.05845350	     -0.13126782	      1.52703285	      0.09177348	     -0.18671806	      1.77002072	      1.02083218	     -0.16043444	      1.86746621	      0.94716650	     -0.13893625	      1.84785485	      0.95077431	     -0.22961159	      1.84533775	      0.96235245	     -0.17306283	      1.88011098	      0.82563871	     -0.19140010	      1.95576441	      0.44696611	     -0.14113030	      1.74859023	      0.39927620	     -0.33396301	      1.87678123	      0.47957942	     -0.09315407	      1.77427244	      0.45249626	     -0.25557458	      1.88813734	      0.39272970	     -0.08874236	      1.74126077	      0.37600222	     -0.23276767	      1.95523179	      0.14005379	     -0.00536753	      1.66637909	      0.14244622	     -0.19503781	      1.91606402	      0.19645344	     -0.06467202	      1.63697672	      0.21828601	     -0.21685870	      2.05062866	      0.04235744	     -0.10536109	      1.60181463	      0.03851068	     -0.21609788
      1.01667000	      1.82750324	      0.67023684	     -0.18633319	      4.40684716	      0.51904236	      3.54015979	     10.07586332	     -3.39790094	     -2.68629742	      3.59137879	    -16.52837967	    -24.88907355	      2.15486055	     -5.77598726	     -8.23439119	      3.24189933	    -22.65423684	      3.31334604	      5.11146117	      0.00000000	      0.00000000	      0.00000000	      0.00000000	      1.94134963	      0.65850841	     -0.12987081	      1.93486817	      0.65935170	     -0.30419060	      1.83701012	      0.67097486	     -0.18692309	      1.81370502	      0.71800293	     -0.16852435	      1.81004550	      0.71763570	     -0.25374893	      1.78650693	      0.62129452	     -0.12689276	      1.77941160	      0.62178117	     -0.24063287	      1.78295926	      0.62153784	     -0.18376282	      1.91923206	      0.33394535	     -0.07412836	      1.92015064	      0.32569447	     -0.16737758	      2.02673005	      0.43608740	     -0.14595185	      1.94294428	      0.47921523	     -0.10496471	      1.94667507	      0.39167683	     -0.09860781	      1.96220220	      0.05247572	     -0.05194393	      1.97737655	      0.04914511	     -0.11105179	      1.96497377	      0.14836168	      0.00667096	      1.94645990	      0.19590755	     -0.06178092	      1.85945687	      0.32804239	     -0.11491211	      1.94993205	      0.05383366	     -0.10375420	      2.05877681	      0.02840310	     -0.07293464	      1.70479883	      0.30665678	     -0.30106467	      1.72704848	      0.30159547	     -0.21183285	      1.77750857	      0.34906493	     -0.37279392	      1.81803921	      0.40546033	     -0.29868131	      1.78534503	      0.33071204	     -0.27477199	      1.53246393	      0.06937608	     -0.26333407	      1.55988771	      0.05325183	     -0.20626783	      1.69014593	      0.09626040	     -0.24584123	      1.66514176	      0.17861409	     -0.25424879	      1.67198734	      0.33890092	     -0.22346119	      1.53470295	      0.08562083	     -0.20103630	      1.60826958	      0.00413147	     -0.27669499	      1.88594444	      0.98860422	     -0.13298967	      1.87805731	      1.00210769	     -0.22030035	      1.78242210	      1.00918088	     -0.16226665	      1.86369451	      0.99866533	     -0.16662413	      1.96294748	      0.90133106	     -0.19587734	      1.78904500	      0.61348600	     -0.17330100	      1.79571000	      0.62584500	     -0.12020300	      1.78788700	      0.62678000	     -0.23738300	      1.86895400	      0.33174300	     -0.10949200	      1.68134500	      0.34506600	     -0.21781300	      1.95635700	      0.05387800	     -0.10429600	      1.53572200	      0.09053600	     -0.22077700	      1.83676100	      0.68772800	     -0.18130500	      1.84265400	      0.68702400	     -0.09302500	      1.83086800	      0.68843300	     -0.26958400	      1.70523800	      0.70752800	     -0.12329100	      1.70365000	      0.70523600	     -0.20809600	      1.86927400	      0.33349700	     -0.06352600	      1.67280100	      0.34501600	     -0.26504600	      1.86104000	      0.32683600	     -0.15193400	      1.68099500	      0.34800100	     -0.17617300	      1.95336400	      0.05356000	     -0.07093200	      1.52836300	      0.09511100	     -0.25210100	      1.95693500	      0.05883300	     -0.12997700	      1.52947700	      0.09417600	     -0.18689100	      1.77644200	      1.02235300	     -0.15876600	      1.87347900	      0.94829800	     -0.13687600	      1.85507900	      0.95281900	     -0.22759400	      1.85179600	      0.96376600	     -0.17104900	      1.88662000	      0.82726400	     -0.19028100	      1.95971800	      0.44778200	     -0.13847300	      1.75385500	      0.40006900	     -0.33322100	      1.88105500	      0.48118200	     -0.09003300	      1.77909600	      0.45346900	     -0.25466600	      1.89122300	      0.39409300	     -0.08541500	      1.74592600	      0.37701400	     -0.23198700	      1.95658100	      0.14003100	     -0.00417000	      1.66906400	      0.14370500	     -0.19514000	      1.91829200	      0.19692400	     -0.06276800	      1.64018900	      0.21982200	     -0.21659900	      2.05043800	      0.04248800	     -0.10440300	      1.60268900	      0.03867000	     -0.21606500	    -13.10182453	    116.98872555	     -8.22834999	      1.95821802	      0.00000000	     -0.09820747	     26.65528108	    153.30485027	     -0.68537210	      1.61597461	      0.00000000	     -0.20256342	      0.00000000	      0.05512524	      0.00000000	      0.00000000	      0.10061700	      0.00000000	      1.78904462	      0.61348569	     -0.17330079	      1.79571009	      0.62584472	     -0.12020285	      1.78788745	      0.62677979	     -0.23738328	      1.86895430	      0.33174300	     -0.10949191	      1.68134511	      0.34506601	     -0.21781306	      1.95635676	      0.05387762	     -0.10429640	      1.53572154	      0.09053588	     -0.22077741	      1.83676100	      0.68772840	     -0.18130453	      1.84265435	      0.68702400	     -0.09302516	      1.83086765	      0.68843287	     -0.26958391	      1.70523775	      0.70752764	     -0.12329133	      1.70365012	      0.70523608	     -0.20809622	      1.86927426	      0.33349669	     -0.06352647	      1.67280102	      0.34501606	     -0.26504648	      1.86104035	      0.32683635	     -0.15193360	      1.68099463	      0.34800106	     -0.17617255	      1.95336413	      0.05356013	     -0.07093184	      1.52836251	      0.09511098	     -0.25210091	      1.95693517	      0.05883314	     -0.12997672	      1.52947736	      0.09417606	     -0.18689051	      1.77644205	      1.02235258	     -0.15876555	      1.87347889	      0.94829786	     -0.13687618	      1.85507905	      0.95281911	     -0.22759360	      1.85179591	      0.96376580	     -0.17104864	      1.88662028	      0.82726353	     -0.19028054	      1.95971775	      0.44778198	     -0.13847263	      1.75385523	      0.40006882	     -0.33322075	      1.88105464	      0.48118189	     -0.09003312	      1.77909553	      0.45346943	     -0.25466600	      1.89122307	      0.39409307	     -0.08541460	      1.74592638	      0.37701389	     -0.23198703	      1.95658147	      0.14003055	     -0.00416960	      1.66906357	      0.14370535	     -0.19514041	      1.91829157	      0.19692394	     -0.06276801	      1.64018905	      0.21982241	     -0.21659888	      2.05043840	      0.04248825	     -0.10440262	      1.60268855	      0.03866958	     -0.21606457
      1.02500000	      1.83279289	      0.67140539	     -0.18543010	      3.96357322	      0.31703861	      3.15863590	     10.38378129	     -3.18940181	     -3.31066227	      2.93259682	    -15.61287889	    -24.59145904	      1.98877041	     -5.79505383	     -8.48731943	      1.77606503	    -22.36335667	      3.67319645	      5.34965068	      0.00000000	      0.00000000	      0.00000000	      0.00000000	      1.94615288	      0.65896487	     -0.12814743	      1.94087876	      0.65932562	     -0.30250959	      1.84230908	      0.67206767	     -0.18595651	      1.81924514	      0.71933153	     -0.16786057	      1.81616983	      0.71873223	     -0.25310691	      1.79100794	      0.62296522	     -0.12612765	      1.78470005	      0.62315930	     -0.23991502	      1.78785399	      0.62306226	     -0.18302133	      1.92222041	      0.33513778	     -0.07219952	      1.92466414	      0.32721387	     -0.16544960	      2.03111273	      0.43729367	     -0.14187066	      1.94675358	      0.48046254	     -0.10212154	      1.95018946	      0.39289420	     -0.09601581	      1.96104915	      0.05232217	     -0.05031185	      1.97718064	      0.04899079	     -0.10916564	      1.96413089	      0.14795535	      0.00869920	      1.94743556	      0.19598990	     -0.05987910	      1.86316102	      0.32949023	     -0.11398572	      1.94968242	      0.05402956	     -0.10231749	      2.05795752	      0.02873576	     -0.06944700	      1.70967414	      0.30824905	     -0.30094862	      1.73122910	      0.30311786	     -0.21155043	      1.78304591	      0.35046132	     -0.37211708	      1.82316731	      0.40673712	     -0.29769154	      1.79008423	      0.33207787	     -0.27404033	      1.53525040	      0.07200147	     -0.26436796	      1.56212413	      0.05571949	     -0.20708524	      1.69298281	      0.09777205	     -0.24569329	      1.66863156	      0.18029644	     -0.25434023	      1.67638676	      0.34055053	     -0.22359797	      1.53713199	      0.08827070	     -0.20206476	      1.60887246	      0.00383067	     -0.27622666	      1.89212431	      0.98974661	     -0.13087388	      1.88470865	      1.00366823	     -0.21816020	      1.78880784	      1.01075548	     -0.16056818	      1.87007028	      1.00002439	     -0.16457179	      1.96918676	      0.90253652	     -0.19377625	      1.79368100	      0.61531700	     -0.17265500	      1.80024700	      0.62774100	     -0.11932500	      1.79318300	      0.62822100	     -0.23655600	      1.87270800	      0.33313600	     -0.10793700	      1.68554700	      0.34639800	     -0.21752100	      1.95623800	      0.05382800	     -0.10346900	      1.53814000	      0.09285800	     -0.22102000	      1.84217200	      0.68903300	     -0.18043000	      1.84749700	      0.68867100	     -0.09205500	      1.83684700	      0.68939500	     -0.26880400	      1.71049600	      0.70999600	     -0.12397600	      1.70953700	      0.70753800	     -0.20881900	      1.87228400	      0.33480900	     -0.06196900	      1.67735100	      0.34633400	     -0.26481600	      1.86330200	      0.32858400	     -0.14901500	      1.68518000	      0.34928600	     -0.17586200	      1.95332000	      0.05348900	     -0.07009800	      1.53078300	      0.09756800	     -0.25232400	      1.95741300	      0.05919600	     -0.12887400	      1.53213500	      0.09655000	     -0.18706300	      1.78262300	      1.02384700	     -0.15717000	      1.87933600	      0.94946100	     -0.13468200	      1.86233000	      0.95492000	     -0.22544700	      1.85816100	      0.96523200	     -0.16900200	      1.89323300	      0.82897100	     -0.18904700	      1.96396200	      0.44847100	     -0.13514100	      1.75908100	      0.40100700	     -0.33255300	      1.88552700	      0.48250900	     -0.08660600	      1.78385500	      0.45463300	     -0.25378800	      1.89410900	      0.39506000	     -0.08208200	      1.75052600	      0.37822000	     -0.23123800	      1.95789200	      0.13998000	     -0.00306800	      1.67190600	      0.14504800	     -0.19536600	      1.92046000	      0.19730500	     -0.06096000	      1.64356300	      0.22137700	     -0.21638600	      2.05028600	      0.04260400	     -0.10347700	      1.60357400	      0.03880300	     -0.21605500	    -13.78287304	    112.60752000	    -11.86181293	      1.95900330	      0.00000000	     -0.09681412	     24.62255521	    141.59533845	     -0.90300663	      1.61661414	      0.00000000	     -0.20212697	      0.00000000	      0.10941235	      0.00000000	      0.00000000	      0.11032979	      0.00000000	      1.79368067	      0.61531746	     -0.17265506	      1.80024695	      0.62774104	     -0.11932512	      1.79318309	      0.62822104	     -0.23655649	      1.87270761	      0.33313614	     -0.10793650	      1.68554699	      0.34639817	     -0.21752077	      1.95623827	      0.05382809	     -0.10346931	      1.53814006	      0.09285817	     -0.22101998	      1.84217191	      0.68903297	     -0.18042985	      1.84749687	      0.68867117	     -0.09205537	      1.83684683	      0.68939477	     -0.26880431	      1.71049631	      0.70999634	     -0.12397621	      1.70953739	      0.70753771	     -0.20881931	      1.87228441	      0.33480904	     -0.06196888	      1.67735088	      0.34633395	     -0.26481581	      1.86330223	      0.32858375	     -0.14901535	      1.68518043	      0.34928623	     -0.17586175	      1.95332015	      0.05348912	     -0.07009837	      1.53078270	      0.09756770	     -0.25232399	      1.95741332	      0.05919633	     -0.12887388	      1.53213537	      0.09654965	     -0.18706308	      1.78262305	      1.02384686	     -0.15716988	      1.87933612	      0.94946128	     -0.13468206	      1.86233032	      0.95491993	     -0.22544688	      1.85816085	      0.96523172	     -0.16900179	      1.89323318	      0.82897115	     -0.18904743	      1.96396160	      0.44847092	     -0.13514063	      1.75908089	      0.40100691	     -0.33255261	      1.88552737	      0.48250869	     -0.08660605	      1.78385508	      0.45463344	     -0.25378793	      1.89410901	      0.39506039	     -0.08208159	      1.75052631	      0.37821954	     -0.23123787	      1.95789170	      0.13998002	     -0.00306848	      1.67190623	      0.14504823	     -0.19536614	      1.92045951	      0.19730505	     -0.06095987	      1.64356291	      0.22137715	     -0.21638632	      2.05028582	      0.04260353	     -0.10347681	      1.60357368	      0.03880313	     -0.21605465
